<?xml version="1.0" encoding="utf-8"?>
<!-- Generator: Adobe Illustrator 27.1.0, SVG Export Plug-In . SVG Version: 6.00 Build 0)  -->
<svg version="1.1" id="Layer_1" xmlns="http://www.w3.org/2000/svg" xmlns:xlink="http://www.w3.org/1999/xlink" x="0px" y="0px"
	 viewBox="0 0 138.07748 18.3" style="enable-background:new 0 0 138.07748 18.3;" xml:space="preserve">
<style type="text/css">
	.st0{fill:#EA4335;}
	.st1{fill:#FBBC05;}
	.st2{fill:#4285F4;}
	.st3{fill:#34A853;}
	.st4{fill:#101827;}
</style>
<g transform="translate(-10081.304 5873.302)">
	<g transform="translate(-5 -20)">
		<g>
			<path class="st0" d="M10110.00781-5843.63037c0,2.58105-2.01953,4.48242-4.49707,4.48242s-4.49707-1.90137-4.49707-4.48242
				c0-2.59912,2.01953-4.48242,4.49707-4.48242S10110.00781-5846.22949,10110.00781-5843.63037z M10108.03906-5843.63037
				c0-1.61279-1.16992-2.71631-2.52832-2.71631s-2.52832,1.10352-2.52832,2.71631c0,1.59668,1.16992,2.71631,2.52832,2.71631
				S10108.03906-5842.03564,10108.03906-5843.63037z"/>
			<path class="st1" d="M10119.70801-5843.63037c0,2.58105-2.01855,4.48242-4.49609,4.48242s-4.49707-1.90137-4.49707-4.48242
				c0-2.59668,2.01953-4.48242,4.49707-4.48242S10119.70801-5846.22949,10119.70801-5843.63037z M10117.74023-5843.63037
				c0-1.61279-1.1709-2.71631-2.52832-2.71631c-1.3584,0-2.52832,1.10352-2.52832,2.71631
				c0,1.59668,1.16992,2.71631,2.52832,2.71631C10116.56934-5840.91406,10117.74023-5842.03564,10117.74023-5843.63037z"/>
			<path class="st2" d="M10129.00488-5847.84229v8.04785c0,3.31055-1.95215,4.6626-4.25977,4.6626
				c-2.17285,0-3.48047-1.45312-3.97363-2.6416l1.71387-0.71338c0.30469,0.72949,1.05273,1.59033,2.25684,1.59033
				c1.47754,0,2.39355-0.91113,2.39355-2.62695v-0.64502h-0.06934c-0.44043,0.54395-1.28906,1.01855-2.36035,1.01855
				c-2.24121,0-4.29395-1.95215-4.29395-4.46436c0-2.53027,2.05273-4.49854,4.29395-4.49854
				c1.06934,0,1.91797,0.4751,2.36035,1.00244h0.06934v-0.72949h1.86914V-5847.84229z M10127.27539-5843.61426
				c0-1.57812-1.05371-2.73242-2.39355-2.73242c-1.35742,0-2.49609,1.1543-2.49609,2.73242c0,1.5625,1.13867,2.7002,2.49609,2.7002
				C10126.22168-5840.91406,10127.27539-5842.05176,10127.27539-5843.61426z"/>
			<path class="st3" d="M10132.08691-5852.55908v13.13672h-1.91992v-13.13672H10132.08691z"/>
			<path class="st0" d="M10139.56836-5842.15479l1.52832,1.01855c-0.49316,0.72949-1.68164,1.98633-3.73535,1.98633
				c-2.5459,0-4.44824-1.96826-4.44824-4.48242c0-2.66553,1.91797-4.48242,4.22852-4.48242
				c2.32617,0,3.46387,1.85107,3.83594,2.85156l0.2041,0.50928l-5.99219,2.48193c0.45801,0.89893,1.17188,1.35791,2.17188,1.35791
				C10138.36426-5840.91406,10139.05957-5841.40723,10139.56836-5842.15479L10139.56836-5842.15479z M10134.86621-5843.76758
				l4.00488-1.66357c-0.21973-0.55957-0.88281-0.94971-1.66309-0.94971
				C10136.20801-5846.38086,10134.81543-5845.49756,10134.86621-5843.76758z"/>
			<path class="st2" d="M10093.74707-5844.79639v-1.90186h6.4082c0.0625,0.33154,0.09473,0.72363,0.09473,1.14795
				c0,1.42676-0.38965,3.19141-1.64648,4.44824c-1.22266,1.27344-2.78516,1.95215-4.85449,1.95215
				c-3.83594,0-7.06152-3.12451-7.06152-6.95996c0-3.83594,3.22559-6.96045,7.06152-6.96045
				c2.12207,0,3.63379,0.83252,4.76953,1.91797l-1.3418,1.3418c-0.81445-0.76367-1.91797-1.35791-3.42969-1.35791
				c-2.80176,0-4.99219,2.25732-4.99219,5.05859c0,2.80078,2.19043,5.05811,4.99219,5.05811
				c1.81641,0,2.85156-0.72949,3.51367-1.39209c0.53809-0.5376,0.8916-1.30566,1.03125-2.35449L10093.74707-5844.79639z"/>
		</g>
		<g>
			<path class="st4" d="M10153.36621-5839.45996l-1.12012-2.86133h-3.60547l-1.10742,2.86133h-1.05859l3.55664-9.03271h0.87988
				l3.53809,9.03271H10153.36621z M10151.91992-5843.2627l-1.0459-2.78711c-0.13477-0.35254-0.27441-0.78564-0.41797-1.29834
				c-0.09082,0.39404-0.21973,0.82666-0.3877,1.29834l-1.05859,2.78711H10151.91992z"/>
			<path class="st4" d="M10161.38965-5845.83447c0,0.91064-0.31055,1.61133-0.93164,2.10107
				c-0.62207,0.49023-1.51074,0.73535-2.66797,0.73535h-1.05859v3.53809h-1.0459v-8.99561h2.33203
				C10160.26562-5848.45557,10161.38965-5847.58203,10161.38965-5845.83447z M10156.73145-5843.89648h0.94141
				c0.92773,0,1.59766-0.14941,2.0127-0.44873c0.41406-0.2998,0.62012-0.7793,0.62012-1.43994
				c0-0.59473-0.19434-1.0376-0.58398-1.3291c-0.38965-0.29102-0.99609-0.43701-1.82129-0.43701h-1.16895V-5843.89648z"/>
			<path class="st4" d="M10163.27148-5839.45996v-8.99561h1.04688v8.99561H10163.27148z"/>
			<path class="st4" d="M10174.05273-5839.45996l-0.20312-0.95996h-0.0498c-0.33594,0.42285-0.67188,0.70898-1.00586,0.8584
				s-0.75195,0.22461-1.25195,0.22461c-0.66895,0-1.19238-0.17188-1.57227-0.5166s-0.56934-0.83496-0.56934-1.4707
				c0-1.3623,1.08887-2.07568,3.26758-2.14111l1.14453-0.03711v-0.41846c0-0.5293-0.11426-0.91992-0.3418-1.17188
				c-0.22754-0.25244-0.5918-0.37842-1.0918-0.37842c-0.5625,0-1.19824,0.17188-1.90723,0.5166l-0.31445-0.78125
				c0.33203-0.18066,0.69629-0.32227,1.09277-0.4248c0.39551-0.10254,0.79199-0.15381,1.19043-0.15381
				c0.80371,0,1.39941,0.17871,1.78711,0.53516c0.3877,0.35693,0.58203,0.9292,0.58203,1.7168v4.60254H10174.05273z
				 M10171.74512-5840.17969c0.63574,0,1.13477-0.1748,1.49805-0.52344s0.54492-0.83691,0.54492-1.46387v-0.60938l-1.02148,0.04297
				c-0.8125,0.0293-1.39844,0.1543-1.75684,0.37891c-0.35938,0.22363-0.53809,0.57129-0.53809,1.04297
				c0,0.36914,0.11133,0.64941,0.33496,0.84277C10171.03027-5840.27637,10171.34277-5840.17969,10171.74512-5840.17969z"/>
			<path class="st4" d="M10180.05078-5839.33691c-0.43848,0-0.83984-0.08105-1.20312-0.24316
				c-0.3623-0.16211-0.66699-0.41113-0.91309-0.74707h-0.07422c0.0498,0.39355,0.07422,0.7666,0.07422,1.11914v2.77539h-1.02148
				v-9.771h0.83105l0.14062,0.92285h0.0498c0.2627-0.36914,0.56836-0.63574,0.91699-0.7998s0.74805-0.24609,1.19922-0.24609
				c0.89453,0,1.58496,0.30566,2.07031,0.91699c0.48633,0.61084,0.72949,1.46826,0.72949,2.57178
				c0,1.10742-0.24707,1.96777-0.74121,2.58105S10180.92871-5839.33691,10180.05078-5839.33691z M10179.90332-5845.45898
				c-0.68945,0-1.1875,0.19043-1.49512,0.57227c-0.30762,0.38135-0.46582,0.98828-0.47363,1.82129v0.22754
				c0,0.94727,0.15723,1.625,0.47363,2.0332c0.31543,0.4082,0.82227,0.6123,1.51953,0.6123
				c0.58301,0,1.03906-0.23535,1.36914-0.70703s0.49512-1.12207,0.49512-1.95117c0-0.84033-0.16504-1.48584-0.49512-1.93457
				C10180.9668-5845.23438,10180.50195-5845.45898,10179.90332-5845.45898z"/>
			<path class="st4" d="M10187.77344-5839.33691c-0.43848,0-0.83984-0.08105-1.20312-0.24316
				c-0.3623-0.16211-0.66699-0.41113-0.91309-0.74707h-0.07422c0.0498,0.39355,0.07422,0.7666,0.07422,1.11914v2.77539h-1.02148
				v-9.771h0.83105l0.14062,0.92285h0.0498c0.2627-0.36914,0.56836-0.63574,0.91699-0.7998s0.74805-0.24609,1.19922-0.24609
				c0.89453,0,1.58496,0.30566,2.07031,0.91699c0.48633,0.61084,0.72949,1.46826,0.72949,2.57178
				c0,1.10742-0.24707,1.96777-0.74121,2.58105S10188.65137-5839.33691,10187.77344-5839.33691z M10187.62598-5845.45898
				c-0.68945,0-1.1875,0.19043-1.49512,0.57227c-0.30762,0.38135-0.46582,0.98828-0.47363,1.82129v0.22754
				c0,0.94727,0.15723,1.625,0.47363,2.0332c0.31543,0.4082,0.82227,0.6123,1.51953,0.6123
				c0.58301,0,1.03906-0.23535,1.36914-0.70703s0.49512-1.12207,0.49512-1.95117c0-0.84033-0.16504-1.48584-0.49512-1.93457
				C10188.68945-5845.23438,10188.22461-5845.45898,10187.62598-5845.45898z"/>
			<path class="st4" d="M10195.43359-5846.32666c0.2998,0,0.56836,0.02441,0.80664,0.07373l-0.1416,0.94775
				c-0.2793-0.06152-0.52539-0.09229-0.73828-0.09229c-0.5459,0-1.0127,0.22119-1.40039,0.66455
				c-0.3877,0.44287-0.58105,0.99463-0.58105,1.65479v3.61816h-1.02148v-6.74365h0.84277l0.11719,1.24902h0.04883
				c0.25-0.43896,0.55176-0.77734,0.9043-1.01514C10194.62402-5846.20752,10195.01172-5846.32666,10195.43359-5846.32666z"/>
			<path class="st4" d="M10203.32129-5842.83789c0,1.09961-0.27637,1.95801-0.83008,2.5752s-1.31934,0.92578-2.29492,0.92578
				c-0.60352,0-1.13867-0.1416-1.60645-0.4248s-0.82812-0.68848-1.08301-1.21777c-0.25391-0.5293-0.38086-1.14844-0.38086-1.8584
				c0-1.09912,0.27441-1.95557,0.82422-2.56885s1.3125-0.91992,2.28906-0.91992c0.94336,0,1.69238,0.31396,2.24902,0.94141
				C10203.04395-5844.75781,10203.32129-5843.90869,10203.32129-5842.83789z M10198.18359-5842.83789
				c0,0.86133,0.17285,1.51758,0.51758,1.96875c0.34375,0.45117,0.85059,0.67676,1.51953,0.67676
				c0.66797,0,1.17578-0.22461,1.52246-0.67383s0.52051-1.10645,0.52051-1.97168c0-0.85742-0.17383-1.5083-0.52051-1.95361
				c-0.34668-0.44482-0.8584-0.66748-1.53516-0.66748c-0.66895,0-1.17285,0.21924-1.51367,0.6582
				C10198.35449-5844.36182,10198.18359-5843.70752,10198.18359-5842.83789z"/>
			<path class="st4" d="M10206.58887-5839.45996l-2.55957-6.74365h1.0957l1.45117,3.99951
				c0.32812,0.93555,0.52148,1.54199,0.5791,1.82129h0.04883c0.04492-0.21777,0.1875-0.66797,0.42773-1.35059
				s0.77832-2.17285,1.61523-4.47021h1.09473l-2.55957,6.74365H10206.58887z"/>
			<path class="st4" d="M10214.27441-5839.33691c-0.99707,0-1.7832-0.30371-2.35938-0.91016
				c-0.57617-0.60742-0.86426-1.4502-0.86426-2.5293c0-1.08691,0.26758-1.95068,0.80273-2.59033
				c0.53516-0.64014,1.25391-0.95996,2.15625-0.95996c0.84473,0,1.51367,0.27783,2.00586,0.8335
				c0.49219,0.55615,0.73828,1.28906,0.73828,2.19922v0.64648h-4.64551c0.02051,0.79199,0.2207,1.39258,0.60059,1.80273
				c0.37891,0.41016,0.91309,0.61523,1.60254,0.61523c0.72559,0,1.44336-0.15137,2.15332-0.45508v0.91113
				c-0.36133,0.15527-0.70215,0.26758-1.02441,0.33496S10214.72949-5839.33691,10214.27441-5839.33691z M10213.99805-5845.47119
				c-0.54199,0-0.97363,0.17627-1.2959,0.52881c-0.32227,0.35303-0.51172,0.84082-0.56934,1.46436h3.52637
				c0-0.64355-0.14355-1.13721-0.43066-1.47949C10214.94141-5845.30029,10214.53125-5845.47119,10213.99805-5845.47119z"/>
			<path class="st4" d="M10223.08496-5840.36426h-0.05566c-0.47168,0.68457-1.17676,1.02734-2.11621,1.02734
				c-0.88184,0-1.56836-0.30176-2.05762-0.9043c-0.49023-0.60352-0.73535-1.46094-0.73535-2.57227s0.24609-1.9751,0.73828-2.59033
				s1.17676-0.92285,2.05469-0.92285c0.91504,0,1.61621,0.33203,2.10449,0.99658h0.08008l-0.04297-0.48584l-0.02539-0.47363
				v-2.74463h1.02148v9.57422h-0.83008L10223.08496-5840.36426z M10221.04199-5840.19238c0.69727,0,1.20312-0.18945,1.5166-0.56934
				c0.31445-0.37891,0.4707-0.99121,0.4707-1.83691v-0.21484c0-0.95557-0.1582-1.6377-0.47656-2.0459
				c-0.31738-0.40771-0.8252-0.61182-1.52246-0.61182c-0.59961,0-1.05762,0.23242-1.375,0.69824
				c-0.31836,0.46533-0.47754,1.12305-0.47754,1.97119c0,0.8623,0.1582,1.5127,0.47363,1.95117
				C10219.96777-5840.41113,10220.43066-5840.19238,10221.04199-5840.19238z"/>
		</g>
	</g>
</g>
</svg>
